<svg width="13" height="13" viewBox="0 0 13 13" fill="none" xmlns="http://www.w3.org/2000/svg">
<path d="M12.4004 6.06671C12.4027 6.94662 12.1971 7.81463 11.8004 8.60004C11.33 9.54121 10.6069 10.3328 9.71202 10.8862C8.81716 11.4396 7.78589 11.733 6.73372 11.7334C5.85381 11.7357 4.9858 11.5301 4.20039 11.1334L0.400391 12.4L1.66706 8.60004C1.27034 7.81463 1.06476 6.94662 1.06706 6.06671C1.06746 5.01455 1.3608 3.98328 1.9142 3.08841C2.46761 2.19354 3.25923 1.47042 4.20039 1.00004C4.9858 0.603331 5.85381 0.397749 6.73372 0.400043H7.06706C8.45662 0.476705 9.76909 1.06322 10.7532 2.04728C11.7372 3.03135 12.3237 4.34381 12.4004 5.73338V6.06671Z" stroke="white" stroke-width="0.8" stroke-linecap="round" stroke-linejoin="round"/>
</svg>
