<svg width="15" height="15" viewBox="0 0 15 15" fill="none" xmlns="http://www.w3.org/2000/svg">
<g clip-path="url(#clip0_400_1158)">
<path d="M7.5 0C3.28125 0 0 3.28125 0 7.5C0 12.4219 4.45312 14.5312 5.15625 14.5312C5.625 14.5312 5.625 14.2969 5.625 14.0625V12.8906C3.98438 13.3594 3.28125 12.4219 3.04688 11.7188C3.04688 11.7188 3.04688 11.4844 2.57812 11.0156C2.34375 10.7812 1.40625 10.3125 2.34375 10.3125C3.04688 10.3125 3.51562 11.25 3.51562 11.25C4.21875 12.1875 5.15625 11.9531 5.625 11.7188C5.625 11.25 6.09375 10.7812 6.09375 10.7812C4.21875 10.5469 2.8125 9.84375 2.8125 7.26562C2.8125 6.32812 3.04688 5.625 3.51562 5.15625C3.51562 5.15625 3.04688 4.21875 3.51562 3.04688C3.51562 3.04688 4.6875 3.04688 5.625 3.98438C6.32812 3.51562 8.67188 3.51562 9.375 3.98438C10.3125 3.04688 11.4844 3.04688 11.4844 3.04688C11.9531 4.6875 11.4844 5.15625 11.4844 5.15625C11.9531 5.625 12.1875 6.32812 12.1875 7.26562C12.1875 9.84375 10.5469 10.5469 8.90625 10.7812C9.14062 11.0156 9.375 11.4844 9.375 12.1875V14.0625C9.375 14.2969 9.375 14.5312 9.84375 14.5312C10.5469 14.5312 15 12.4219 15 7.5C15 3.28125 11.7188 0 7.5 0Z" fill="#C3C3C3"/>
</g>
<defs>
<clipPath id="clip0_400_1158">
<rect width="15" height="15" fill="white"/>
</clipPath>
</defs>
</svg>
