<svg width="15" height="15" viewBox="0 0 15 15" fill="none" xmlns="http://www.w3.org/2000/svg">
<g clip-path="url(#clip0_400_1153)">
<path d="M14.8213 7.64036C14.8213 7.02582 14.7714 6.57736 14.6635 6.1123H7.646V8.88604H11.7651C11.6821 9.57536 11.2336 10.6134 10.237 11.311L10.2231 11.4039L12.4419 13.1227L12.5956 13.1381C14.0074 11.8342 14.8213 9.91583 14.8213 7.64036Z" fill="#4285F4"/>
<path d="M7.64575 14.9484C9.66377 14.9484 11.3579 14.284 12.5954 13.138L10.2368 11.3109C9.60566 11.751 8.75856 12.0583 7.64575 12.0583C5.66925 12.0583 3.99171 10.7545 3.39371 8.95239L3.30606 8.95984L0.998922 10.7454L0.96875 10.8292C2.19783 13.2708 4.72247 14.9484 7.64575 14.9484Z" fill="#34A853"/>
<path d="M3.39407 8.9525C3.23628 8.48744 3.14497 7.98912 3.14497 7.47425C3.14497 6.95933 3.23628 6.46107 3.38577 5.99601L3.38159 5.89696L1.04554 4.08276L0.969108 4.11912C0.462543 5.13231 0.171875 6.27007 0.171875 7.47425C0.171875 8.67843 0.462543 9.81614 0.969108 10.8293L3.39407 8.9525Z" fill="#FBBC05"/>
<path d="M7.64575 2.89002C9.04923 2.89002 9.99594 3.49626 10.5358 4.00288L12.6452 1.9433C11.3497 0.739122 9.66377 0 7.64575 0C4.72247 0 2.19783 1.67754 0.96875 4.1191L3.38541 5.99599C3.99171 4.19387 5.66925 2.89002 7.64575 2.89002Z" fill="#EB4335"/>
</g>
<defs>
<clipPath id="clip0_400_1153">
<rect width="15" height="15" fill="white"/>
</clipPath>
</defs>
</svg>
