<svg width="113" height="31" viewBox="0 0 113 31" fill="none" xmlns="http://www.w3.org/2000/svg">
<path d="M1.50488 18.2353V4.03613H6.25455C7.20576 4.03613 8.03323 4.21768 8.73688 4.58076C9.45355 4.94384 10.0074 5.45605 10.3983 6.11739C10.7892 6.76577 10.9847 7.53081 10.9847 8.4126C10.9847 9.28139 10.7827 10.0465 10.3787 10.7078C9.98782 11.3692 9.44054 11.8814 8.73688 12.2444C8.03323 12.6075 7.20576 12.7891 6.25455 12.7891H3.94813V18.2353H1.50488ZM3.94813 10.5911H6.25455C6.93212 10.5911 7.47293 10.3966 7.87686 10.0076C8.29386 9.60562 8.50233 9.07394 8.50233 8.4126C8.50233 7.73832 8.29386 7.20664 7.87686 6.81762C7.47293 6.4286 6.93212 6.23409 6.25455 6.23409H3.94813V10.5911Z" fill="white"/>
<path d="M32.0259 18.2353V4.03606H36.541C37.4922 4.03606 38.3131 4.21112 39.0038 4.56124C39.7074 4.91136 40.2547 5.40412 40.6456 6.03951C41.0366 6.66194 41.232 7.40108 41.232 8.25692C41.232 9.19057 40.9909 10.014 40.5088 10.7272C40.0397 11.4404 39.4012 11.9461 38.5933 12.2444L41.4275 18.2353H38.691L36.2087 12.5945H34.4691V18.2353H32.0259ZM34.4691 10.4549H36.541C37.2316 10.4549 37.7724 10.2669 38.1633 9.89081C38.5542 9.51473 38.7497 8.99606 38.7497 8.33473C38.7497 7.66045 38.5542 7.13527 38.1633 6.7592C37.7724 6.37018 37.2316 6.17567 36.541 6.17567H34.4691V10.4549ZM46.8927 18.2353V6.29238H43.1594V4.03606H53.0888V6.29238H49.3555V18.2353H46.8927ZM54.5275 18.2353L58.4758 10.9606L54.7621 4.03606H57.4985L59.2968 7.59559C59.427 7.85496 59.5443 8.10782 59.6486 8.35418C59.7528 8.58759 59.831 8.76915 59.8831 8.89881C59.9222 8.76915 59.9939 8.58759 60.0981 8.35418C60.2024 8.10782 60.3197 7.85496 60.45 7.59559L62.2677 4.03606H64.926L61.2122 10.9023L65.1605 18.2353H62.4241L60.4109 14.3062C60.2806 14.0468 60.1568 13.794 60.0395 13.5476C59.9352 13.3012 59.857 13.1067 59.8049 12.9641C59.7528 13.1067 59.6747 13.3012 59.5704 13.5476C59.4661 13.794 59.3489 14.0468 59.2186 14.3062L57.1858 18.2353H54.5275ZM67.1078 18.2353V4.03606H70.0983L74.0662 15.5121C74.0271 15.0972 73.9813 14.6109 73.9293 14.0533C73.8902 13.4827 73.8573 12.9057 73.8316 12.3222C73.8053 11.7257 73.7925 11.207 73.7925 10.7661V4.03606H76.0201V18.2353H73.0302L69.1015 6.7592C69.1271 7.13527 69.1601 7.58909 69.1992 8.12077C69.2383 8.65245 69.2707 9.19708 69.2969 9.75465C69.3226 10.3122 69.336 10.8245 69.336 11.2913V18.2353H67.1078ZM79.1402 18.2353V4.03606H87.7013V6.15622H81.5443V9.85191H87.0172V11.9526H81.5443V16.1151H87.7013V18.2353H79.1402ZM95.0823 18.4298C94.1698 18.4298 93.3684 18.2612 92.6782 17.9241C92.0002 17.5739 91.4724 17.0877 91.095 16.4652C90.7297 15.8299 90.5477 15.0842 90.5477 14.2284V8.04296C90.5477 7.17417 90.7297 6.42853 91.095 5.8061C91.4724 5.18367 92.0002 4.70388 92.6782 4.36673C93.3684 4.01661 94.1698 3.84155 95.0823 3.84155C96.0071 3.84155 96.8024 4.01661 97.4669 4.36673C98.1443 4.70388 98.6721 5.18367 99.0502 5.8061C99.4276 6.42853 99.617 7.17417 99.617 8.04296H97.1542C97.1542 7.36868 96.9716 6.85645 96.6069 6.50634C96.2551 6.15622 95.7469 5.98116 95.0823 5.98116C94.4178 5.98116 93.9028 6.15622 93.5382 6.50634C93.1729 6.85645 92.9909 7.36218 92.9909 8.02351V14.2284C92.9909 14.8897 93.1729 15.4019 93.5382 15.765C93.9028 16.1151 94.4178 16.2902 95.0823 16.2902C95.7469 16.2902 96.2551 16.1151 96.6069 15.765C96.9716 15.4019 97.1542 14.8897 97.1542 14.2284H99.617C99.617 15.0713 99.4276 15.8104 99.0502 16.4458C98.6721 17.0812 98.1443 17.5739 97.4669 17.9241C96.8024 18.2612 96.0071 18.4298 95.0823 18.4298ZM105.492 18.2353V6.29238H101.759V4.03606H111.688V6.29238H107.955V18.2353H105.492Z" fill="white"/>
<path d="M1.85702 29.2373C1.57198 29.2373 1.32154 29.1846 1.10573 29.0793C0.893975 28.9698 0.729056 28.8179 0.610968 28.6234C0.49695 28.4248 0.439941 28.1918 0.439941 27.9243V25.9914C0.439941 25.7199 0.49695 25.4869 0.610968 25.2924C0.729056 25.0979 0.893975 24.9479 1.10573 24.8426C1.32154 24.7332 1.57198 24.6785 1.85702 24.6785C2.14614 24.6785 2.39454 24.7332 2.60221 24.8426C2.81396 24.9479 2.97888 25.0979 3.09697 25.2924C3.21506 25.4869 3.2741 25.7199 3.2741 25.9914H2.50448C2.50448 25.7807 2.44747 25.6206 2.33345 25.5112C2.22351 25.4018 2.0647 25.3471 1.85702 25.3471C1.64935 25.3471 1.4885 25.4018 1.37448 25.5112C1.26046 25.6206 1.20345 25.7787 1.20345 25.9853V27.9243C1.20345 28.131 1.26046 28.2911 1.37448 28.4045C1.4885 28.514 1.64935 28.5687 1.85702 28.5687C2.0647 28.5687 2.22351 28.514 2.33345 28.4045C2.44747 28.2911 2.50448 28.131 2.50448 27.9243H3.2741C3.2741 28.1877 3.21506 28.4187 3.09697 28.6173C2.97888 28.8159 2.81396 28.9698 2.60221 29.0793C2.39454 29.1846 2.14614 29.2373 1.85702 29.2373ZM4.2368 29.1765V25.8334H4.95755V26.4716H5.1469L4.9209 26.8606C4.9209 26.5 5.00235 26.2285 5.16523 26.0461C5.32811 25.8638 5.56836 25.7726 5.88599 25.7726C6.24839 25.7726 6.53345 25.884 6.74113 26.1069C6.9488 26.3298 7.05264 26.6377 7.05264 27.0308V27.274H6.25248V27.0855C6.25248 26.8708 6.19549 26.7046 6.08144 26.5871C5.9715 26.4696 5.8188 26.4108 5.62334 26.4108C5.42381 26.4108 5.26907 26.4696 5.15912 26.5871C5.05325 26.7046 5.00031 26.8708 5.00031 27.0855V29.1765H4.2368ZM9.16366 29.2373C8.8786 29.2373 8.63024 29.1826 8.41847 29.0732C8.20671 28.9638 8.04179 28.8118 7.92372 28.6173C7.80968 28.4187 7.75269 28.1877 7.75269 27.9243V27.0855C7.75269 26.8221 7.80968 26.5932 7.92372 26.3987C8.04179 26.2001 8.20671 26.0461 8.41847 25.9367C8.63024 25.8273 8.8786 25.7726 9.16366 25.7726C9.44464 25.7726 9.68896 25.8273 9.89664 25.9367C10.1084 26.0461 10.2712 26.2001 10.3853 26.3987C10.5034 26.5932 10.5624 26.8221 10.5624 27.0855V27.6873H8.49177V27.9243C8.49177 28.1594 8.54876 28.3377 8.6628 28.4593C8.77684 28.5767 8.94579 28.6355 9.16977 28.6355C9.3408 28.6355 9.47927 28.6071 9.58512 28.5504C9.69098 28.4896 9.75817 28.4025 9.78669 28.2891H10.538C10.481 28.5767 10.3262 28.8077 10.0738 28.982C9.82536 29.1522 9.52203 29.2373 9.16366 29.2373ZM9.82334 27.2618V27.0794C9.82334 26.8485 9.76837 26.6722 9.65842 26.5506C9.54847 26.425 9.38356 26.3622 9.16366 26.3622C8.94377 26.3622 8.77684 26.425 8.6628 26.5506C8.54876 26.6763 8.49177 26.8545 8.49177 27.0855V27.2132L9.87831 27.201L9.82334 27.2618ZM12.4474 29.2373C12.1013 29.2373 11.8284 29.1461 11.629 28.9638C11.4294 28.7814 11.3297 28.5363 11.3297 28.2283C11.3297 27.9 11.4396 27.6467 11.6595 27.4685C11.8794 27.2902 12.1909 27.201 12.594 27.201H13.4309V26.9153C13.4309 26.7532 13.3779 26.6276 13.272 26.5385C13.1661 26.4453 13.0216 26.3987 12.8384 26.3987C12.6714 26.3987 12.533 26.4351 12.423 26.5081C12.3131 26.581 12.2479 26.6803 12.2276 26.8059H11.4824C11.519 26.4898 11.6615 26.2386 11.9099 26.0522C12.1583 25.8658 12.4759 25.7726 12.8628 25.7726C13.2741 25.7726 13.5978 25.8759 13.834 26.0826C14.0742 26.2852 14.1944 26.5608 14.1944 26.9093V29.1765H13.4553V28.593H13.3331L13.4553 28.4289C13.4553 28.6761 13.3637 28.8726 13.1804 29.0185C12.9972 29.1644 12.7528 29.2373 12.4474 29.2373ZM12.6979 28.6659C12.9137 28.6659 13.0888 28.6112 13.2232 28.5018C13.3616 28.3924 13.4309 28.2506 13.4309 28.0763V27.6691H12.6063C12.4515 27.6691 12.3273 27.7136 12.2337 27.8028C12.14 27.892 12.0932 28.0094 12.0932 28.1553C12.0932 28.3134 12.1461 28.439 12.252 28.5322C12.3619 28.6214 12.5105 28.6659 12.6979 28.6659ZM16.849 29.1765C16.5273 29.1765 16.2748 29.0873 16.0916 28.9091C15.9124 28.7308 15.8228 28.4856 15.8228 28.1736V26.5202H14.9127V25.8334H15.8228V24.8912H16.5925V25.8334H17.8813V26.5202H16.5925V28.1736C16.5925 28.3843 16.6963 28.4896 16.904 28.4896H17.8202V29.1765H16.849ZM20.1511 29.2373C19.866 29.2373 19.6176 29.1826 19.4059 29.0732C19.1942 28.9638 19.0292 28.8118 18.9112 28.6173C18.7971 28.4187 18.7401 28.1877 18.7401 27.9243V27.0855C18.7401 26.8221 18.7971 26.5932 18.9112 26.3987C19.0292 26.2001 19.1942 26.0461 19.4059 25.9367C19.6176 25.8273 19.866 25.7726 20.1511 25.7726C20.4321 25.7726 20.6764 25.8273 20.8841 25.9367C21.0958 26.0461 21.2587 26.2001 21.3727 26.3987C21.4908 26.5932 21.5499 26.8221 21.5499 27.0855V27.6873H19.4792V27.9243C19.4792 28.1594 19.5362 28.3377 19.6502 28.4593C19.7642 28.5767 19.9332 28.6355 20.1572 28.6355C20.3282 28.6355 20.4667 28.6071 20.5726 28.5504C20.6784 28.4896 20.7456 28.4025 20.7741 28.2891H21.5254C21.4684 28.5767 21.3137 28.8077 21.0612 28.982C20.8128 29.1522 20.5094 29.2373 20.1511 29.2373ZM20.8108 27.2618V27.0794C20.8108 26.8485 20.7558 26.6722 20.6459 26.5506C20.5359 26.425 20.371 26.3622 20.1511 26.3622C19.9312 26.3622 19.7642 26.425 19.6502 26.5506C19.5362 26.6763 19.4792 26.8545 19.4792 27.0855V27.2132L20.8658 27.201L20.8108 27.2618ZM27.47 29.2373C27.2948 29.2373 27.1544 29.1867 27.0485 29.0853C26.9467 28.984 26.8958 28.8463 26.8958 28.672C26.8958 28.4977 26.9467 28.36 27.0485 28.2587C27.1544 28.1533 27.2948 28.1006 27.47 28.1006C27.645 28.1006 27.7835 28.1533 27.8853 28.2587C27.9912 28.36 28.0441 28.4977 28.0441 28.672C28.0441 28.8463 27.9912 28.984 27.8853 29.0853C27.7835 29.1867 27.645 29.2373 27.47 29.2373ZM34.8193 29.2373C34.5343 29.2373 34.2839 29.1846 34.068 29.0793C33.8563 28.9698 33.6914 28.8179 33.5733 28.6234C33.4593 28.4248 33.4022 28.1918 33.4022 27.9243V25.9914C33.4022 25.7199 33.4593 25.4869 33.5733 25.2924C33.6914 25.0979 33.8563 24.9479 34.068 24.8426C34.2839 24.7332 34.5343 24.6785 34.8193 24.6785C35.1085 24.6785 35.3568 24.7332 35.5645 24.8426C35.7763 24.9479 35.9412 25.0979 36.0593 25.2924C36.1774 25.4869 36.2364 25.7199 36.2364 25.9914H35.4668C35.4668 25.7807 35.4098 25.6206 35.2957 25.5112C35.1858 25.4018 35.027 25.3471 34.8193 25.3471C34.6116 25.3471 34.4508 25.4018 34.3368 25.5112C34.2228 25.6206 34.1657 25.7787 34.1657 25.9853V27.9243C34.1657 28.131 34.2228 28.2911 34.3368 28.4045C34.4508 28.514 34.6116 28.5687 34.8193 28.5687C35.027 28.5687 35.1858 28.514 35.2957 28.4045C35.4098 28.2911 35.4668 28.131 35.4668 27.9243H36.2364C36.2364 28.1877 36.1774 28.4187 36.0593 28.6173C35.9412 28.8159 35.7763 28.9698 35.5645 29.0793C35.3568 29.1846 35.1085 29.2373 34.8193 29.2373ZM38.4574 29.2312C38.1724 29.2312 37.9239 29.1785 37.7122 29.0732C37.5045 28.9638 37.3416 28.8118 37.2235 28.6173C37.1095 28.4187 37.0525 28.1857 37.0525 27.9183V27.0916C37.0525 26.8242 37.1095 26.5932 37.2235 26.3987C37.3416 26.2001 37.5045 26.0481 37.7122 25.9428C37.9239 25.8334 38.1724 25.7787 38.4574 25.7787C38.7465 25.7787 38.9949 25.8334 39.2025 25.9428C39.4102 26.0481 39.5711 26.2001 39.6851 26.3987C39.8032 26.5932 39.8622 26.8221 39.8622 27.0855V27.9183C39.8622 28.1857 39.8032 28.4187 39.6851 28.6173C39.5711 28.8118 39.4102 28.9638 39.2025 29.0732C38.9949 29.1785 38.7465 29.2312 38.4574 29.2312ZM38.4574 28.5687C38.661 28.5687 38.8177 28.514 38.9277 28.4045C39.0417 28.2911 39.0987 28.129 39.0987 27.9183V27.0916C39.0987 26.8769 39.0417 26.7147 38.9277 26.6053C38.8177 26.4959 38.661 26.4412 38.4574 26.4412C38.2579 26.4412 38.1011 26.4959 37.987 26.6053C37.8731 26.7147 37.816 26.8769 37.816 27.0916V27.9183C37.816 28.129 37.8731 28.2911 37.987 28.4045C38.1011 28.514 38.2579 28.5687 38.4574 28.5687ZM40.7577 29.1765V25.8334H41.5029V26.4716H41.7106L41.5029 26.6479C41.5029 26.3723 41.5823 26.1575 41.7411 26.0036C41.904 25.8496 42.1259 25.7726 42.4069 25.7726C42.7368 25.7726 42.9994 25.882 43.1949 26.1008C43.3944 26.3196 43.4942 26.6134 43.4942 26.9822V29.1765H42.7306V27.0612C42.7306 26.8586 42.6778 26.7026 42.5718 26.5932C42.466 26.4838 42.3174 26.4291 42.1259 26.4291C41.9387 26.4291 41.79 26.4858 41.6801 26.5993C41.5742 26.7127 41.5212 26.8748 41.5212 27.0855V29.1765H40.7577ZM44.4202 29.1765V25.8334H45.1654V26.4716H45.3731L45.1654 26.6479C45.1654 26.3723 45.2448 26.1575 45.4036 26.0036C45.5665 25.8496 45.7884 25.7726 46.0694 25.7726C46.3992 25.7726 46.6619 25.882 46.8573 26.1008C47.0569 26.3196 47.1566 26.6134 47.1566 26.9822V29.1765H46.3931V27.0612C46.3931 26.8586 46.3402 26.7026 46.2343 26.5932C46.1285 26.4838 45.9799 26.4291 45.7884 26.4291C45.6012 26.4291 45.4525 26.4858 45.3425 26.5993C45.2367 26.7127 45.1837 26.8748 45.1837 27.0855V29.1765H44.4202ZM49.4509 29.2373C49.1659 29.2373 48.9175 29.1826 48.7057 29.0732C48.494 28.9638 48.3291 28.8118 48.211 28.6173C48.097 28.4187 48.0399 28.1877 48.0399 27.9243V27.0855C48.0399 26.8221 48.097 26.5932 48.211 26.3987C48.3291 26.2001 48.494 26.0461 48.7057 25.9367C48.9175 25.8273 49.1659 25.7726 49.4509 25.7726C49.7319 25.7726 49.9762 25.8273 50.1839 25.9367C50.3957 26.0461 50.5586 26.2001 50.6725 26.3987C50.7907 26.5932 50.8497 26.8221 50.8497 27.0855V27.6873H48.779V27.9243C48.779 28.1594 48.8361 28.3377 48.95 28.4593C49.0641 28.5767 49.2331 28.6355 49.457 28.6355C49.628 28.6355 49.7665 28.6071 49.8724 28.5504C49.9783 28.4896 50.0455 28.4025 50.0739 28.2891H50.8252C50.7682 28.5767 50.6135 28.8077 50.361 28.982C50.1127 29.1522 49.8093 29.2373 49.4509 29.2373ZM50.1106 27.2618V27.0794C50.1106 26.8485 50.0556 26.6722 49.9457 26.5506C49.8357 26.425 49.6708 26.3622 49.4509 26.3622C49.231 26.3622 49.0641 26.425 48.95 26.5506C48.8361 26.6763 48.779 26.8545 48.779 27.0855V27.2132L50.1656 27.201L50.1106 27.2618ZM53.1256 29.2373C52.8405 29.2373 52.5901 29.1846 52.3743 29.0793C52.1625 28.9698 51.9976 28.8179 51.8796 28.6234C51.7615 28.4248 51.7024 28.1918 51.7024 27.9243V27.0855C51.7024 26.814 51.7615 26.581 51.8796 26.3865C51.9976 26.192 52.1625 26.042 52.3743 25.9367C52.5901 25.8273 52.8405 25.7726 53.1256 25.7726C53.5491 25.7726 53.8871 25.882 54.1396 26.1008C54.392 26.3156 54.5244 26.6094 54.5366 26.9822H53.7731C53.7609 26.8079 53.6978 26.6742 53.5837 26.581C53.4738 26.4838 53.3211 26.4351 53.1256 26.4351C52.922 26.4351 52.7611 26.4918 52.6431 26.6053C52.525 26.7147 52.4659 26.8728 52.4659 27.0794V27.9243C52.4659 28.131 52.525 28.2911 52.6431 28.4045C52.7611 28.518 52.922 28.5747 53.1256 28.5747C53.3211 28.5747 53.4738 28.5281 53.5837 28.4349C53.6978 28.3377 53.7609 28.202 53.7731 28.0277H54.5366C54.5244 28.4005 54.392 28.6963 54.1396 28.9151C53.8871 29.1299 53.5491 29.2373 53.1256 29.2373ZM57.1363 29.1765C56.8145 29.1765 56.5621 29.0873 56.3788 28.9091C56.1997 28.7308 56.1101 28.4856 56.1101 28.1736V26.5202H55.2V25.8334H56.1101V24.8912H56.8797V25.8334H58.1685V26.5202H56.8797V28.1736C56.8797 28.3843 56.9836 28.4896 57.1912 28.4896H58.1074V29.1765H57.1363ZM64.095 29.2373C63.9197 29.2373 63.7792 29.1867 63.6735 29.0853C63.5715 28.984 63.5208 28.8463 63.5208 28.672C63.5208 28.4977 63.5715 28.36 63.6735 28.2587C63.7792 28.1533 63.9197 28.1006 64.095 28.1006C64.2697 28.1006 64.4083 28.1533 64.5103 28.2587C64.616 28.36 64.6691 28.4977 64.6691 28.672C64.6691 28.8463 64.616 28.984 64.5103 29.0853C64.4083 29.1867 64.2697 29.2373 64.095 29.2373ZM71.4443 29.2373C71.159 29.2373 70.9086 29.1846 70.693 29.0793C70.481 28.9698 70.3161 28.8179 70.1982 28.6234C70.084 28.4248 70.0272 28.1918 70.0272 27.9243V25.9914C70.0272 25.7199 70.084 25.4869 70.1982 25.2924C70.3161 25.0979 70.481 24.9479 70.693 24.8426C70.9086 24.7332 71.159 24.6785 71.4443 24.6785C71.7332 24.6785 71.9818 24.7332 72.1894 24.8426C72.4008 24.9479 72.5657 25.0979 72.6842 25.2924C72.8021 25.4869 72.8613 25.7199 72.8613 25.9914H72.0917C72.0917 25.7807 72.0343 25.6206 71.9207 25.5112C71.8107 25.4018 71.6519 25.3471 71.4443 25.3471C71.2366 25.3471 71.0753 25.4018 70.9617 25.5112C70.8475 25.6206 70.7907 25.7787 70.7907 25.9853V27.9243C70.7907 28.131 70.8475 28.2911 70.9617 28.4045C71.0753 28.514 71.2366 28.5687 71.4443 28.5687C71.6519 28.5687 71.8107 28.514 71.9207 28.4045C72.0343 28.2911 72.0917 28.131 72.0917 27.9243H72.8613C72.8613 28.1877 72.8021 28.4187 72.6842 28.6173C72.5657 28.8159 72.4008 28.9698 72.1894 29.0793C71.9818 29.1846 71.7332 29.2373 71.4443 29.2373ZM75.0822 29.2312C74.797 29.2312 74.549 29.1785 74.3371 29.0732C74.1294 28.9638 73.9663 28.8118 73.8484 28.6173C73.7342 28.4187 73.6774 28.1857 73.6774 27.9183V27.0916C73.6774 26.8242 73.7342 26.5932 73.8484 26.3987C73.9663 26.2001 74.1294 26.0481 74.3371 25.9428C74.549 25.8334 74.797 25.7787 75.0822 25.7787C75.3712 25.7787 75.6198 25.8334 75.8274 25.9428C76.0351 26.0481 76.1958 26.2001 76.31 26.3987C76.4279 26.5932 76.4871 26.8221 76.4871 27.0855V27.9183C76.4871 28.1857 76.4279 28.4187 76.31 28.6173C76.1958 28.8118 76.0351 28.9638 75.8274 29.0732C75.6198 29.1785 75.3712 29.2312 75.0822 29.2312ZM75.0822 28.5687C75.2856 28.5687 75.4426 28.514 75.5526 28.4045C75.6668 28.2911 75.7236 28.129 75.7236 27.9183V27.0916C75.7236 26.8769 75.6668 26.7147 75.5526 26.6053C75.4426 26.4959 75.2856 26.4412 75.0822 26.4412C74.8825 26.4412 74.7261 26.4959 74.6119 26.6053C74.4977 26.7147 74.4409 26.8769 74.4409 27.0916V27.9183C74.4409 28.129 74.4977 28.2911 74.6119 28.4045C74.7261 28.514 74.8825 28.5687 75.0822 28.5687ZM79.2577 29.1765C79.0379 29.1765 78.8442 29.132 78.6775 29.0428C78.5144 28.9536 78.3861 28.828 78.2927 28.6659C78.1992 28.4998 78.1522 28.3093 78.1522 28.0945V25.4261H77.0772V24.7393H78.9157V28.0945C78.9157 28.2161 78.9505 28.3134 79.0195 28.3863C79.0928 28.4552 79.1906 28.4896 79.3127 28.4896H80.3267V29.1765H79.2577ZM82.9202 29.1765C82.7003 29.1765 82.5066 29.132 82.3399 29.0428C82.1768 28.9536 82.0485 28.828 81.9551 28.6659C81.8616 28.4998 81.8146 28.3093 81.8146 28.0945V25.4261H80.7396V24.7393H82.5781V28.0945C82.5781 28.2161 82.6129 28.3134 82.682 28.3863C82.7553 28.4552 82.853 28.4896 82.9751 28.4896H83.9891V29.1765H82.9202ZM85.6969 29.2373C85.3506 29.2373 85.0782 29.1461 84.8784 28.9638C84.6787 28.7814 84.5791 28.5363 84.5791 28.2283C84.5791 27.9 84.6891 27.6467 84.909 27.4685C85.1289 27.2902 85.4404 27.201 85.8435 27.201H86.6803V26.9153C86.6803 26.7532 86.6272 26.6276 86.5215 26.5385C86.4158 26.4453 86.2711 26.3987 86.0878 26.3987C85.9211 26.3987 85.7824 26.4351 85.6725 26.5081C85.5625 26.581 85.4972 26.6803 85.477 26.8059H84.7318C84.7685 26.4898 84.9108 26.2386 85.1594 26.0522C85.408 25.8658 85.7256 25.7726 86.1123 25.7726C86.5233 25.7726 86.8471 25.8759 87.0835 26.0826C87.3235 26.2852 87.4438 26.5608 87.4438 26.9093V29.1765H86.7048V28.593H86.5826L86.7048 28.4289C86.7048 28.6761 86.6131 28.8726 86.4299 29.0185C86.2466 29.1644 86.0023 29.2373 85.6969 29.2373ZM85.9473 28.6659C86.163 28.6659 86.3383 28.6112 86.4726 28.5018C86.6113 28.3924 86.6803 28.2506 86.6803 28.0763V27.6691H85.8557C85.7012 27.6691 85.5766 27.7136 85.4831 27.8028C85.3897 27.892 85.3426 28.0094 85.3426 28.1553C85.3426 28.3134 85.3958 28.439 85.5014 28.5322C85.6114 28.6214 85.7598 28.6659 85.9473 28.6659ZM90.019 29.2373C89.7423 29.2373 89.5224 29.1603 89.3593 29.0063C89.1969 28.8483 89.115 28.6335 89.115 28.362L89.286 28.5383H89.115V29.1765H88.3698V24.7393H89.1333V25.6753L89.1089 26.4716H89.286L89.115 26.6479C89.115 26.3764 89.1969 26.1636 89.3593 26.0096C89.5224 25.8516 89.7423 25.7726 90.019 25.7726C90.3574 25.7726 90.628 25.8881 90.8314 26.1191C91.0354 26.35 91.1368 26.662 91.1368 27.0551V27.9608C91.1368 28.3498 91.0354 28.6598 90.8314 28.8908C90.628 29.1218 90.3574 29.2373 90.019 29.2373ZM89.7503 28.5808C89.9457 28.5808 90.0984 28.5241 90.2084 28.4106C90.3183 28.2971 90.3733 28.1351 90.3733 27.9243V27.0855C90.3733 26.8748 90.3183 26.7127 90.2084 26.5993C90.0984 26.4858 89.9457 26.4291 89.7503 26.4291C89.5591 26.4291 89.4082 26.4878 89.2983 26.6053C89.1883 26.7188 89.1333 26.8789 89.1333 27.0855V27.9243C89.1333 28.131 89.1883 28.2931 89.2983 28.4106C89.4082 28.5241 89.5591 28.5808 89.7503 28.5808ZM93.3943 29.2312C93.1097 29.2312 92.8611 29.1785 92.6492 29.0732C92.4415 28.9638 92.279 28.8118 92.1605 28.6173C92.0469 28.4187 91.9895 28.1857 91.9895 27.9183V27.0916C91.9895 26.8242 92.0469 26.5932 92.1605 26.3987C92.279 26.2001 92.4415 26.0481 92.6492 25.9428C92.8611 25.8334 93.1097 25.7787 93.3943 25.7787C93.6839 25.7787 93.9319 25.8334 94.1395 25.9428C94.3472 26.0481 94.5085 26.2001 94.6221 26.3987C94.7406 26.5932 94.7992 26.8221 94.7992 27.0855V27.9183C94.7992 28.1857 94.7406 28.4187 94.6221 28.6173C94.5085 28.8118 94.3472 28.9638 94.1395 29.0732C93.9319 29.1785 93.6839 29.2312 93.3943 29.2312ZM93.3943 28.5687C93.5984 28.5687 93.7547 28.514 93.8647 28.4045C93.9789 28.2911 94.0357 28.129 94.0357 27.9183V27.0916C94.0357 26.8769 93.9789 26.7147 93.8647 26.6053C93.7547 26.4959 93.5984 26.4412 93.3943 26.4412C93.1952 26.4412 93.0382 26.4959 92.924 26.6053C92.8104 26.7147 92.753 26.8769 92.753 27.0916V27.9183C92.753 28.129 92.8104 28.2911 92.924 28.4045C93.0382 28.514 93.1952 28.5687 93.3943 28.5687ZM95.7985 29.1765V25.8334H96.5193V26.4716H96.7086L96.4826 26.8606C96.4826 26.5 96.5645 26.2285 96.7269 26.0461C96.89 25.8638 97.1301 25.7726 97.4477 25.7726C97.8105 25.7726 98.0952 25.884 98.3028 26.1069C98.5105 26.3298 98.6143 26.6377 98.6143 27.0308V27.274H97.8142V27.0855C97.8142 26.8708 97.7574 26.7046 97.6432 26.5871C97.5332 26.4696 97.3805 26.4108 97.185 26.4108C96.9859 26.4108 96.8308 26.4696 96.7208 26.5871C96.6152 26.7046 96.562 26.8708 96.562 27.0855V29.1765H95.7985ZM100.347 29.2373C100.001 29.2373 99.7279 29.1461 99.5287 28.9638C99.329 28.7814 99.2294 28.5363 99.2294 28.2283C99.2294 27.9 99.3394 27.6467 99.5593 27.4685C99.7792 27.2902 100.091 27.201 100.494 27.201H101.331V26.9153C101.331 26.7532 101.277 26.6276 101.172 26.5385C101.066 26.4453 100.921 26.3987 100.738 26.3987C100.571 26.3987 100.433 26.4351 100.323 26.5081C100.213 26.581 100.147 26.6803 100.127 26.8059H99.3821C99.4188 26.4898 99.5611 26.2386 99.8097 26.0522C100.058 25.8658 100.375 25.7726 100.763 25.7726C101.174 25.7726 101.497 25.8759 101.734 26.0826C101.974 26.2852 102.094 26.5608 102.094 26.9093V29.1765H101.355V28.593H101.233L101.355 28.4289C101.355 28.6761 101.263 28.8726 101.08 29.0185C100.897 29.1644 100.653 29.2373 100.347 29.2373ZM100.598 28.6659C100.813 28.6659 100.989 28.6112 101.123 28.5018C101.261 28.3924 101.331 28.2506 101.331 28.0763V27.6691H100.506C100.351 27.6691 100.227 27.7136 100.133 27.8028C100.039 27.892 99.9929 28.0094 99.9929 28.1553C99.9929 28.3134 100.045 28.439 100.152 28.5322C100.262 28.6214 100.41 28.6659 100.598 28.6659ZM104.749 29.1765C104.427 29.1765 104.175 29.0873 103.991 28.9091C103.812 28.7308 103.723 28.4856 103.723 28.1736V26.5202H102.812V25.8334H103.723V24.8912H104.492V25.8334H105.781V26.5202H104.492V28.1736C104.492 28.3843 104.596 28.4896 104.804 28.4896H105.72V29.1765H104.749ZM108.051 29.2373C107.766 29.2373 107.517 29.1826 107.306 29.0732C107.094 28.9638 106.929 28.8118 106.811 28.6173C106.697 28.4187 106.64 28.1877 106.64 27.9243V27.0855C106.64 26.8221 106.697 26.5932 106.811 26.3987C106.929 26.2001 107.094 26.0461 107.306 25.9367C107.517 25.8273 107.766 25.7726 108.051 25.7726C108.332 25.7726 108.576 25.8273 108.784 25.9367C108.995 26.0461 109.158 26.2001 109.272 26.3987C109.39 26.5932 109.45 26.8221 109.45 27.0855V27.6873H107.379V27.9243C107.379 28.1594 107.436 28.3377 107.55 28.4593C107.663 28.5767 107.833 28.6355 108.057 28.6355C108.228 28.6355 108.366 28.6071 108.472 28.5504C108.578 28.4896 108.645 28.4025 108.674 28.2891H109.425C109.368 28.5767 109.213 28.8077 108.961 28.982C108.712 29.1522 108.409 29.2373 108.051 29.2373ZM108.71 27.2618V27.0794C108.71 26.8485 108.655 26.6722 108.546 26.5506C108.436 26.425 108.271 26.3622 108.051 26.3622C107.831 26.3622 107.663 26.425 107.55 26.5506C107.436 26.6763 107.379 26.8545 107.379 27.0855V27.2132L108.765 27.201L108.71 27.2618Z" fill="#00FFBD"/>
<path d="M16.1648 5.75623H17.454L16.8094 6.40084L17.5582 7.14963L18.9511 5.75623H20.9074V4.69742H20.0099L20.9074 3.8004V2.59717L21.2102 2.27953L21.494 2.59717V3.78134L22.4105 4.69742H21.494V5.75623H23.4693L24.8555 7.14285L25.6043 6.39448L24.9664 5.75623H26.2421L27.3009 4.69742H23.9076L21.2102 2L18.5128 4.69742H15.106L16.1648 5.75623Z" fill="#00FFBD"/>
<path d="M14.6974 17.3143L15.7562 16.2555V14.9663L16.4008 15.6109L17.1496 14.8621L15.7562 13.4692V11.5129H14.6974V12.4103L13.8004 11.5129H12.6056L12.2867 11.2101L12.6056 10.9263H13.7813L14.6974 10.0098V10.9263H15.7562V8.951L17.1428 7.56439L16.3945 6.81602L15.7562 7.45385V6.17819L14.6974 5.11938V8.51266L12 11.2101L14.6974 13.9075V17.3143Z" fill="#00FFBD"/>
<path d="M26.6635 10.9264H27.7223V10.0099L28.6388 10.9264H29.8175L30.1338 11.2102L29.8175 11.513H28.6197L27.7223 12.4105V11.513H26.6635V13.4693L25.2739 14.8589L26.0223 15.6077L26.6635 14.9664V16.2489L27.7223 17.3077V13.9076L30.4201 11.2102L27.7223 8.51278V5.10596L26.6635 6.16477V7.45397L26.0193 6.80937L25.2705 7.55816L26.6635 8.95113V10.9264Z" fill="#00FFBD"/>
<path d="M26.2485 16.6635H24.9661L25.6073 16.0223L24.8585 15.2739L23.4689 16.6635H21.4936V17.7223H22.4101L21.4936 18.6388V19.8196L21.2098 20.1351L20.907 19.8196V18.6198L20.0096 17.7223H20.907V16.6635H18.9508L17.5646 15.2773L16.8158 16.0257L17.4536 16.6635H16.1779L15.1191 17.7223H18.5124L21.2098 20.4202L23.9073 17.7223H27.3073L26.2485 16.6635Z" fill="#00FFBD"/>
</svg>
