<svg width="19" height="19" viewBox="0 0 19 19" fill="none" xmlns="http://www.w3.org/2000/svg">
<path d="M4.16477 3.75623H5.45397L4.80937 4.40084L5.55816 5.14963L6.95113 3.75623H8.90739V2.69742H8.00994L8.90739 1.8004V0.597168L9.21021 0.279526L9.49397 0.597168V1.78134L10.4105 2.69742H9.49397V3.75623H11.4693L12.8555 5.14285L13.6043 4.39448L12.9664 3.75623H14.2421L15.3009 2.69742H11.9076L9.21021 0L6.51278 2.69742H3.10596L4.16477 3.75623Z" fill="#00FFBD"/>
<path d="M2.69742 15.3143L3.75623 14.2555V12.9663L4.40084 13.6109L5.14963 12.8621L3.75623 11.4692V9.5129H2.69742V10.4103L1.8004 9.5129H0.605639L0.286726 9.21008L0.605639 8.92632H1.78134L2.69742 8.00981V8.92632H3.75623V6.951L5.14285 5.56439L4.39448 4.81602L3.75623 5.45385V4.17819L2.69742 3.11938V6.51266L0 9.21008L2.69742 11.9075V15.3143Z" fill="#00FFBD"/>
<path d="M14.6635 8.92644H15.7223V8.00994L16.6388 8.92644H17.8175L18.1338 9.21021L17.8175 9.51303H16.6197L15.7223 10.4105V9.51303H14.6635V11.4693L13.2739 12.8589L14.0223 13.6077L14.6635 12.9664V14.2489L15.7223 15.3077V11.9076L18.4201 9.21021L15.7223 6.51278V3.10596L14.6635 4.16477V5.45397L14.0193 4.80937L13.2705 5.55816L14.6635 6.95113V8.92644Z" fill="#00FFBD"/>
<path d="M14.2485 14.6635H12.9661L13.6073 14.0223L12.8585 13.2739L11.4689 14.6635H9.4936V15.7223H10.4101L9.4936 16.6388V17.8196L9.20984 18.1351L8.90702 17.8196V16.6198L8.00957 15.7223H8.90702V14.6635H6.95076L5.56457 13.2773L4.81578 14.0257L5.4536 14.6635H4.17795L3.11914 15.7223H6.51241L9.20984 18.4202L11.9073 15.7223H15.3073L14.2485 14.6635Z" fill="#00FFBD"/>
</svg>
